<mxfile host="app.diagrams.net" modified="2022-03-15T11:41:52.765Z" agent="5.0 (Macintosh; Intel Mac OS X 10_15_7) AppleWebKit/605.1.15 (KHTML, like Gecko) Version/15.3 Safari/605.1.15" etag="T_BqnUKp-KeSl63VHjtx" version="17.1.2" type="github">
  <diagram id="qfNDnY9ZJVYpXAUHBQdG" name="Page-1">
    <mxGraphModel dx="946" dy="546" grid="1" gridSize="10" guides="1" tooltips="1" connect="1" arrows="1" fold="1" page="1" pageScale="1" pageWidth="827" pageHeight="1169" math="0" shadow="0">
      <root>
        <mxCell id="0" />
        <mxCell id="1" parent="0" />
        <mxCell id="gCS1Tl_UnyuCBa4XtsFX-2" value="" style="rounded=0;whiteSpace=wrap;html=1;fillColor=#dae8fc;strokeColor=#6c8ebf;" vertex="1" parent="1">
          <mxGeometry x="160" y="120" width="480" height="360" as="geometry" />
        </mxCell>
        <mxCell id="gCS1Tl_UnyuCBa4XtsFX-3" value="&lt;font style=&quot;font-size: 42px&quot;&gt;RYBY 101&lt;/font&gt;" style="text;html=1;strokeColor=none;fillColor=none;align=center;verticalAlign=middle;whiteSpace=wrap;rounded=0;" vertex="1" parent="1">
          <mxGeometry x="285" y="190" width="230" height="30" as="geometry" />
        </mxCell>
        <mxCell id="gCS1Tl_UnyuCBa4XtsFX-4" value="PLAY" style="rounded=1;whiteSpace=wrap;html=1;fontSize=23;fillColor=#d5e8d4;strokeColor=#82b366;" vertex="1" parent="1">
          <mxGeometry x="305" y="285" width="190" height="30" as="geometry" />
        </mxCell>
        <mxCell id="gCS1Tl_UnyuCBa4XtsFX-5" value="USTAWIENIA" style="rounded=1;whiteSpace=wrap;html=1;fontSize=23;fillColor=#d5e8d4;strokeColor=#82b366;" vertex="1" parent="1">
          <mxGeometry x="305" y="330" width="190" height="30" as="geometry" />
        </mxCell>
        <mxCell id="gCS1Tl_UnyuCBa4XtsFX-6" value="QUIT" style="rounded=1;whiteSpace=wrap;html=1;fontSize=23;fillColor=#d5e8d4;strokeColor=#82b366;" vertex="1" parent="1">
          <mxGeometry x="305" y="380" width="190" height="30" as="geometry" />
        </mxCell>
        <mxCell id="gCS1Tl_UnyuCBa4XtsFX-8" value="" style="ellipse;whiteSpace=wrap;html=1;fontSize=42;" vertex="1" parent="1">
          <mxGeometry x="530" y="190" width="95" height="160" as="geometry" />
        </mxCell>
        <mxCell id="gCS1Tl_UnyuCBa4XtsFX-9" value="" style="triangle;whiteSpace=wrap;html=1;fontSize=42;rotation=-90;" vertex="1" parent="1">
          <mxGeometry x="547.5" y="320" width="60" height="80" as="geometry" />
        </mxCell>
        <mxCell id="gCS1Tl_UnyuCBa4XtsFX-10" value="" style="ellipse;whiteSpace=wrap;html=1;aspect=fixed;fontSize=42;" vertex="1" parent="1">
          <mxGeometry x="577.5" y="220" width="30" height="30" as="geometry" />
        </mxCell>
        <mxCell id="gCS1Tl_UnyuCBa4XtsFX-11" value="" style="ellipse;whiteSpace=wrap;html=1;fontSize=42;" vertex="1" parent="1">
          <mxGeometry x="170" y="190" width="95" height="160" as="geometry" />
        </mxCell>
        <mxCell id="gCS1Tl_UnyuCBa4XtsFX-12" value="" style="triangle;whiteSpace=wrap;html=1;fontSize=42;rotation=-90;" vertex="1" parent="1">
          <mxGeometry x="187.5" y="320" width="60" height="80" as="geometry" />
        </mxCell>
        <mxCell id="gCS1Tl_UnyuCBa4XtsFX-13" value="" style="ellipse;whiteSpace=wrap;html=1;aspect=fixed;fontSize=42;" vertex="1" parent="1">
          <mxGeometry x="217.5" y="220" width="30" height="30" as="geometry" />
        </mxCell>
        <mxCell id="gCS1Tl_UnyuCBa4XtsFX-14" value="" style="rounded=0;whiteSpace=wrap;html=1;fillColor=#dae8fc;strokeColor=#6c8ebf;" vertex="1" parent="1">
          <mxGeometry x="160" y="520" width="480" height="360" as="geometry" />
        </mxCell>
        <mxCell id="gCS1Tl_UnyuCBa4XtsFX-15" value="&lt;font style=&quot;font-size: 25px&quot;&gt;WYBIERZ &amp;nbsp;LOKALIZACJĘ POŁOWU&lt;/font&gt;" style="text;html=1;strokeColor=none;fillColor=none;align=center;verticalAlign=middle;whiteSpace=wrap;rounded=0;fontSize=42;" vertex="1" parent="1">
          <mxGeometry x="170" y="535" width="460" height="50" as="geometry" />
        </mxCell>
        <mxCell id="gCS1Tl_UnyuCBa4XtsFX-17" value="" style="shape=image;imageAspect=0;aspect=fixed;verticalLabelPosition=bottom;verticalAlign=top;fontSize=25;image=https://drukant.pl/images/wzory/M_Mapy/M005_70_N.png;" vertex="1" parent="1">
          <mxGeometry x="187.5" y="620" width="417.5" height="208.75" as="geometry" />
        </mxCell>
        <mxCell id="gCS1Tl_UnyuCBa4XtsFX-18" value="" style="ellipse;whiteSpace=wrap;html=1;aspect=fixed;fontSize=25;fillColor=#f8cecc;strokeColor=#b85450;" vertex="1" parent="1">
          <mxGeometry x="547.5" y="690" width="10" height="10" as="geometry" />
        </mxCell>
        <mxCell id="gCS1Tl_UnyuCBa4XtsFX-19" value="" style="ellipse;whiteSpace=wrap;html=1;aspect=fixed;fontSize=25;fillColor=#f8cecc;strokeColor=#b85450;" vertex="1" parent="1">
          <mxGeometry x="370" y="640" width="10" height="10" as="geometry" />
        </mxCell>
        <mxCell id="gCS1Tl_UnyuCBa4XtsFX-20" value="" style="ellipse;whiteSpace=wrap;html=1;aspect=fixed;fontSize=25;fillColor=#f8cecc;strokeColor=#b85450;" vertex="1" parent="1">
          <mxGeometry x="395" y="719.38" width="10" height="10" as="geometry" />
        </mxCell>
        <mxCell id="gCS1Tl_UnyuCBa4XtsFX-21" value="" style="ellipse;whiteSpace=wrap;html=1;aspect=fixed;fontSize=25;fillColor=#f8cecc;strokeColor=#b85450;" vertex="1" parent="1">
          <mxGeometry x="547.5" y="800" width="10" height="10" as="geometry" />
        </mxCell>
        <mxCell id="gCS1Tl_UnyuCBa4XtsFX-22" value="" style="ellipse;whiteSpace=wrap;html=1;aspect=fixed;fontSize=25;fillColor=#f8cecc;strokeColor=#b85450;" vertex="1" parent="1">
          <mxGeometry x="295" y="695" width="10" height="10" as="geometry" />
        </mxCell>
        <mxCell id="gCS1Tl_UnyuCBa4XtsFX-23" value="" style="ellipse;whiteSpace=wrap;html=1;aspect=fixed;fontSize=25;fillColor=#f8cecc;strokeColor=#b85450;" vertex="1" parent="1">
          <mxGeometry x="200" y="640" width="10" height="10" as="geometry" />
        </mxCell>
        <mxCell id="gCS1Tl_UnyuCBa4XtsFX-24" value="" style="ellipse;whiteSpace=wrap;html=1;aspect=fixed;fontSize=25;fillColor=#f8cecc;strokeColor=#b85450;" vertex="1" parent="1">
          <mxGeometry x="255" y="670" width="10" height="10" as="geometry" />
        </mxCell>
        <mxCell id="gCS1Tl_UnyuCBa4XtsFX-25" value="" style="ellipse;whiteSpace=wrap;html=1;aspect=fixed;fontSize=25;fillColor=#f8cecc;strokeColor=#b85450;" vertex="1" parent="1">
          <mxGeometry x="430" y="660" width="10" height="10" as="geometry" />
        </mxCell>
        <mxCell id="gCS1Tl_UnyuCBa4XtsFX-26" value="" style="ellipse;whiteSpace=wrap;html=1;aspect=fixed;fontSize=25;fillColor=#f8cecc;strokeColor=#b85450;" vertex="1" parent="1">
          <mxGeometry x="255" y="770" width="10" height="10" as="geometry" />
        </mxCell>
        <mxCell id="gCS1Tl_UnyuCBa4XtsFX-28" value="" style="rounded=0;whiteSpace=wrap;html=1;fillColor=#dae8fc;strokeColor=#6c8ebf;" vertex="1" parent="1">
          <mxGeometry x="160" y="920" width="480" height="360" as="geometry" />
        </mxCell>
        <mxCell id="gCS1Tl_UnyuCBa4XtsFX-29" value="&lt;font style=&quot;font-size: 25px&quot;&gt;WYBIERZ &amp;nbsp;RYBAKA&lt;/font&gt;" style="text;html=1;strokeColor=none;fillColor=none;align=center;verticalAlign=middle;whiteSpace=wrap;rounded=0;fontSize=42;" vertex="1" parent="1">
          <mxGeometry x="170" y="940" width="460" height="50" as="geometry" />
        </mxCell>
        <mxCell id="gCS1Tl_UnyuCBa4XtsFX-30" value="Char 1" style="shape=umlActor;verticalLabelPosition=bottom;verticalAlign=top;html=1;outlineConnect=0;fontSize=25;" vertex="1" parent="1">
          <mxGeometry x="217.5" y="1070" width="75" height="120" as="geometry" />
        </mxCell>
        <mxCell id="gCS1Tl_UnyuCBa4XtsFX-31" value="Char 2" style="shape=umlActor;verticalLabelPosition=bottom;verticalAlign=top;html=1;outlineConnect=0;fontSize=25;" vertex="1" parent="1">
          <mxGeometry x="358.75" y="1070" width="75" height="120" as="geometry" />
        </mxCell>
        <mxCell id="gCS1Tl_UnyuCBa4XtsFX-32" value="Char 3&lt;br&gt;" style="shape=umlActor;verticalLabelPosition=bottom;verticalAlign=top;html=1;outlineConnect=0;fontSize=25;" vertex="1" parent="1">
          <mxGeometry x="510" y="1070" width="75" height="120" as="geometry" />
        </mxCell>
        <mxCell id="gCS1Tl_UnyuCBa4XtsFX-35" value="" style="rounded=0;whiteSpace=wrap;html=1;fillColor=#dae8fc;strokeColor=#6c8ebf;" vertex="1" parent="1">
          <mxGeometry x="160" y="1320" width="480" height="360" as="geometry" />
        </mxCell>
        <mxCell id="gCS1Tl_UnyuCBa4XtsFX-36" value="" style="rounded=0;whiteSpace=wrap;html=1;fontSize=25;fillColor=#a0522d;fontColor=#ffffff;strokeColor=#6D1F00;" vertex="1" parent="1">
          <mxGeometry x="380" y="1570" width="260" height="10" as="geometry" />
        </mxCell>
        <mxCell id="gCS1Tl_UnyuCBa4XtsFX-37" value="" style="rounded=0;whiteSpace=wrap;html=1;fontSize=25;fillColor=#a0522d;fontColor=#ffffff;strokeColor=#6D1F00;" vertex="1" parent="1">
          <mxGeometry x="423.75" y="1580" width="10" height="60" as="geometry" />
        </mxCell>
        <mxCell id="gCS1Tl_UnyuCBa4XtsFX-38" value="" style="rounded=0;whiteSpace=wrap;html=1;fontSize=25;fillColor=#a0522d;fontColor=#ffffff;strokeColor=#6D1F00;" vertex="1" parent="1">
          <mxGeometry x="510" y="1580" width="10" height="60" as="geometry" />
        </mxCell>
        <mxCell id="gCS1Tl_UnyuCBa4XtsFX-39" value="" style="rounded=0;whiteSpace=wrap;html=1;fontSize=25;fillColor=#a0522d;fontColor=#ffffff;strokeColor=#6D1F00;" vertex="1" parent="1">
          <mxGeometry x="587.5" y="1580" width="10" height="60" as="geometry" />
        </mxCell>
        <mxCell id="gCS1Tl_UnyuCBa4XtsFX-40" value="" style="shape=tape;whiteSpace=wrap;html=1;fontSize=25;fillColor=#1ba1e2;fontColor=#ffffff;strokeColor=#006EAF;" vertex="1" parent="1">
          <mxGeometry x="158.75" y="1620" width="482.5" height="100" as="geometry" />
        </mxCell>
        <mxCell id="gCS1Tl_UnyuCBa4XtsFX-41" value="" style="shape=tape;whiteSpace=wrap;html=1;fontSize=25;fillColor=#1ba1e2;fontColor=#ffffff;strokeColor=#006EAF;direction=west;flipV=1;" vertex="1" parent="1">
          <mxGeometry x="160" y="1620" width="482.5" height="100" as="geometry" />
        </mxCell>
        <mxCell id="gCS1Tl_UnyuCBa4XtsFX-44" value="" style="shape=umlActor;verticalLabelPosition=bottom;verticalAlign=top;html=1;outlineConnect=0;fontSize=25;" vertex="1" parent="1">
          <mxGeometry x="410" y="1510" width="30" height="60" as="geometry" />
        </mxCell>
        <mxCell id="gCS1Tl_UnyuCBa4XtsFX-45" value="" style="rounded=0;whiteSpace=wrap;html=1;fontSize=25;rotation=45;" vertex="1" parent="1">
          <mxGeometry x="320" y="1499.39" width="120" height="1.21" as="geometry" />
        </mxCell>
        <mxCell id="gCS1Tl_UnyuCBa4XtsFX-46" value="" style="shape=tape;whiteSpace=wrap;html=1;fontSize=25;rotation=-90;" vertex="1" parent="1">
          <mxGeometry x="258.75" y="1535" width="165" height="10" as="geometry" />
        </mxCell>
      </root>
    </mxGraphModel>
  </diagram>
</mxfile>
